<?xml version="1.0" encoding="UTF-8" standalone="no"?>
<!-- Generator: Adobe Illustrator 16.0.0, SVG Export Plug-In . SVG Version: 6.00 Build 0)  -->
<!DOCTYPE svg  PUBLIC '-//W3C//DTD SVG 1.1//EN'  'http://www.w3.org/Graphics/SVG/1.1/DTD/svg11.dtd'>
<svg id="Capa_1" style="enable-background:new 0 0 96.124 96.123" xmlns="http://www.w3.org/2000/svg" xml:space="preserve" height="96.123px" viewBox="0 0 96.124 96.123" width="96.124px" version="1.1" y="0px" x="0px" xmlns:xlink="http://www.w3.org/1999/xlink">
	<path d="m72.089 0.02l-12.465-0.02c-14.004 0-23.054 9.285-23.054 23.656v10.907h-12.533c-1.083 0-1.96 0.878-1.96 1.961v15.803c0 1.083 0.878 1.96 1.96 1.96h12.533v39.876c0 1.083 0.877 1.96 1.96 1.96h16.352c1.083 0 1.96-0.878 1.96-1.96v-39.876h14.654c1.083 0 1.96-0.877 1.96-1.96l0.006-15.803c0-0.52-0.207-1.018-0.574-1.386s-0.867-0.575-1.387-0.575h-14.659v-9.246c0-4.444 1.059-6.7 6.848-6.7l8.397-0.003c1.082 0 1.959-0.878 1.959-1.96v-14.674c0-1.081-0.876-1.958-1.957-1.96z"/>
</svg>
