<?xml version="1.0" encoding="UTF-8" standalone="no"?>
<!-- Generator: Adobe Illustrator 19.0.0, SVG Export Plug-In . SVG Version: 6.00 Build 0)  -->
<svg id="Capa_1" style="enable-background:new 0 0 409.61 409.61" xmlns="http://www.w3.org/2000/svg" xml:space="preserve" viewBox="0 0 409.61 409.61" version="1.1" y="0px" x="0px" xmlns:xlink="http://www.w3.org/1999/xlink">
		<path d="m307.2 0h-204.8c-56.31 0-102.4 46.085-102.4 102.4v204.81c0 56.3 46.085 102.4 102.4 102.4h204.8c56.315 0 102.4-46.1 102.4-102.4v-204.81c0-56.315-46.08-102.4-102.4-102.4zm68.27 307.21c0 37.632-30.612 68.265-68.265 68.265h-204.8c-37.637 0-68.265-30.633-68.265-68.265v-204.82c0-37.642 30.628-68.265 68.265-68.265h204.8c37.653 0 68.265 30.623 68.265 68.265v204.81z"/>
		<circle cy="93.865" cx="315.76" r="25.6"/>
		<path d="m204.8 102.4c-56.566 0-102.4 45.839-102.4 102.4 0 56.54 45.834 102.41 102.4 102.41 56.55 0 102.4-45.87 102.4-102.41 0-56.56-45.84-102.4-102.4-102.4zm0 170.68c-37.699 0-68.265-30.566-68.265-68.275s30.566-68.265 68.265-68.265 68.265 30.556 68.265 68.265-30.56 68.28-68.26 68.28z"/>
</svg>
